<svg width="1266" height="1080" viewBox="0 0 1266 1080" fill="none" xmlns="http://www.w3.org/2000/svg">
<g clip-path="url(#clip0)">
<path d="M774.968 64.003C744.698 178.937 750.423 250.996 792.138 280.178C854.714 323.952 1003.5 341.461 1065.7 436.417C1127.89 531.371 1317.52 457.965 1349.96 294.993C1382.39 132.021 1440.78 -119.172 1132.87 -119.172C927.59 -119.172 808.292 -58.1152 774.969 64.003H774.968Z" fill="#FFFA72"/>
<path d="M270.911 290.933C186.155 612.749 202.183 814.512 318.987 896.223C494.198 1018.79 910.812 1067.81 1084.96 1333.69C1259.09 1599.56 1790.07 1394.03 1880.88 937.704C1971.69 481.382 2135.19 -221.959 1273.03 -221.959C698.251 -221.959 364.219 -50.9984 270.914 290.933H270.911Z" fill="#C7E1F3"/>
<path d="M312.916 272.022C232.7 576.598 247.87 767.552 358.417 844.886C524.241 960.885 918.537 1007.28 1083.35 1258.92C1248.16 1510.55 1750.69 1316.02 1836.63 884.144C1922.58 452.269 2077.32 -213.393 1261.35 -213.393C717.363 -213.393 401.225 -51.5914 312.919 272.022H312.916Z" fill="#B8CFE6"/>
<path d="M354.921 253.111C279.245 540.447 293.556 720.593 397.846 793.549C554.284 902.982 926.261 946.755 1081.75 1184.15C1237.23 1421.53 1711.31 1238.02 1792.39 830.585C1873.47 423.155 2019.45 -204.828 1249.67 -204.828C736.474 -204.828 438.231 -52.1844 354.923 253.111H354.921Z" fill="#A9BEDA"/>
<path d="M396.925 234.2C325.791 504.296 339.243 673.633 437.275 742.212C584.327 845.079 933.985 886.226 1080.14 1109.37C1226.29 1332.52 1671.93 1160.01 1748.15 777.026C1824.36 394.042 1961.58 -196.262 1237.99 -196.262C755.586 -196.262 475.237 -52.7776 396.928 234.2H396.925Z" fill="#9AADCE"/>
<path d="M438.93 215.289C372.336 468.145 384.93 626.673 476.704 690.875C614.37 787.176 941.71 825.696 1078.54 1034.6C1215.36 1243.5 1632.55 1082.01 1703.9 723.467C1775.25 364.928 1903.72 -187.697 1226.31 -187.697C774.697 -187.697 512.243 -53.3706 438.932 215.289H438.93Z" fill="#8B9BC1"/>
<path d="M480.935 196.379C418.881 431.994 430.616 579.714 516.133 639.537C644.413 729.273 949.434 765.167 1076.93 959.827C1204.43 1154.48 1593.17 1004 1659.66 669.907C1726.14 335.815 1845.85 -179.131 1214.63 -179.131C793.809 -179.131 549.25 -53.9637 480.937 196.379H480.935Z" fill="#7D8AB5"/>
<path d="M522.94 177.468C465.426 395.843 476.303 532.754 555.563 588.201C674.456 671.37 957.158 704.637 1075.33 885.054C1193.49 1065.47 1553.8 925.995 1615.42 616.348C1677.04 306.701 1787.98 -170.565 1202.95 -170.565C812.921 -170.565 586.256 -54.5567 522.942 177.468H522.94Z" fill="#6E79A9"/>
<path d="M564.944 158.557C511.972 359.692 521.99 485.794 594.992 536.863C704.499 613.467 964.883 644.108 1073.72 810.281C1182.56 976.451 1514.42 847.99 1571.17 562.789C1627.93 277.588 1730.12 -162 1191.27 -162C832.032 -162 623.262 -55.1498 564.946 158.557H564.944Z" fill="#5F679C"/>
<path d="M606.949 139.646C558.517 323.541 567.676 438.835 634.421 485.526C734.542 555.564 972.607 583.578 1072.12 735.508C1171.63 887.435 1475.04 769.985 1526.93 509.23C1578.82 248.474 1672.25 -153.435 1179.59 -153.435C851.144 -153.435 660.268 -55.7429 606.951 139.646H606.949Z" fill="#505690"/>
<path d="M648.954 120.735C605.062 287.39 613.363 391.875 673.85 434.189C764.584 497.661 980.331 523.049 1070.51 660.735C1160.69 798.419 1435.66 691.98 1482.69 455.67C1529.71 219.361 1614.38 -144.869 1167.91 -144.869C870.255 -144.869 697.274 -56.336 648.955 120.735H648.954Z" fill="#414584"/>
<path d="M690.959 101.825C651.608 251.239 659.049 344.915 713.28 382.852C794.628 439.758 988.056 462.519 1068.91 585.963C1149.76 709.403 1396.28 613.975 1438.44 402.111C1480.6 190.248 1556.51 -136.303 1156.23 -136.303C889.367 -136.303 734.28 -56.9291 690.96 101.825H690.959Z" fill="#323377"/>
<path d="M732.963 82.9139C698.153 215.088 704.736 297.955 752.709 331.515C824.671 381.855 995.78 401.99 1067.3 511.19C1138.82 620.387 1356.9 535.97 1394.2 348.552C1431.5 161.134 1498.65 -127.738 1144.55 -127.738C908.478 -127.738 771.286 -57.5221 732.965 82.9139H732.963Z" fill="#23226B"/>
</g>
<defs>
<clipPath id="clip0">
<rect width="1266" height="1080" fill="white"/>
</clipPath>
</defs>
</svg>
