<svg width="40" height="41" viewBox="0 0 40 41" fill="none" xmlns="http://www.w3.org/2000/svg">
<g clip-path="url(#clip0)">
<path d="M14.1423 11.4184L13.4658 11.6697C12.4217 12.0577 11.6428 12.9938 11.4329 14.1134L11.2034 15.3463C11.0889 15.957 11.2448 16.5824 11.6314 17.062C12.0182 17.542 12.5885 17.8173 13.1959 17.8173H19.0597C19.6624 17.8173 20.2298 17.5456 20.6165 17.0719C21.0029 16.5986 21.1637 15.9788 21.0576 15.3716L20.8435 14.1452C20.6452 13.008 19.8637 12.0567 18.8039 11.6625L18.0867 11.396V10.3126C18.0867 10.2822 18.0838 10.2525 18.0795 10.2233C18.6027 9.67733 18.9024 8.93284 18.9024 8.17114V6.55684C18.9024 4.98107 17.6516 3.6991 16.1142 3.6991C14.5767 3.6991 13.3257 4.98107 13.3257 6.55684V8.22143C13.3257 9.00443 13.6407 9.71929 14.1472 10.2384C14.1442 10.2628 14.1423 10.2874 14.1423 10.3125V11.4184ZM19.6898 14.3566L19.9039 15.5832C19.9487 15.8395 19.8808 16.1011 19.7176 16.301C19.5542 16.5012 19.3143 16.6161 19.0596 16.6161H13.1957C12.9391 16.6161 12.6982 16.4998 12.5347 16.297C12.3716 16.0945 12.3057 15.8307 12.3542 15.5723L12.5837 14.3394C12.716 13.6337 13.2071 13.0435 13.8649 12.799L14.3081 12.6345C14.3192 12.6461 14.3303 12.6579 14.3424 12.6687C14.8473 13.1212 15.4807 13.3475 16.1144 13.3475C16.7474 13.3475 17.3806 13.1216 17.8856 12.67C17.9038 12.6538 17.9205 12.6362 17.9364 12.618L18.4039 12.7916C19.0721 13.04 19.5648 13.6397 19.6898 14.3566ZM14.4976 6.55684C14.4976 5.64347 15.2227 4.90027 16.1139 4.90027C16.8661 4.90027 17.4982 5.43039 17.6776 6.14468C17.6023 6.1824 17.525 6.21803 17.4459 6.25047C16.7254 6.54611 16.1435 6.50688 15.9771 6.3874C15.7121 6.19697 15.3468 6.26264 15.161 6.53426C14.9752 6.80589 15.0393 7.18033 15.3042 7.37084C15.5904 7.57656 15.9789 7.67938 16.4221 7.67938C16.8249 7.67938 17.2729 7.59362 17.7303 7.42393V8.17098C17.7303 8.63007 17.5451 9.07963 17.2221 9.40434C17.0725 9.55473 16.9012 9.67124 16.7172 9.75164C16.7043 9.75669 16.6917 9.76213 16.6792 9.76806C16.4903 9.84469 16.2884 9.88321 16.0821 9.87768C15.2083 9.86047 14.4976 9.11742 14.4976 8.22135V6.55684ZM16.0596 11.0788C16.0774 11.0791 16.0952 11.0793 16.1131 11.0793C16.388 11.0793 16.6574 11.0369 16.9147 10.9556V11.9165C16.4264 12.2251 15.8021 12.2249 15.3143 11.916V10.9574C15.5514 11.031 15.8011 11.0736 16.0596 11.0788Z" fill="#FBFBFB"/>
<path d="M6.89551 28.0997H25.1432C25.4668 28.0997 25.7291 27.8309 25.7291 27.4991C25.7291 27.1674 25.4668 26.8986 25.1432 26.8986H6.89551C6.57184 26.8986 6.30957 27.1674 6.30957 27.4991C6.30957 27.8309 6.57184 28.0997 6.89551 28.0997Z" fill="#FBFBFB"/>
<path d="M6.89551 31.3383H25.1432C25.4668 31.3383 25.7291 31.0694 25.7291 30.7377C25.7291 30.4059 25.4668 30.1371 25.1432 30.1371H6.89551C6.57184 30.1371 6.30957 30.4059 6.30957 30.7377C6.30957 31.0694 6.57184 31.3383 6.89551 31.3383Z" fill="#FBFBFB"/>
<path d="M6.89551 34.5765H25.1432C25.4668 34.5765 25.7291 34.3077 25.7291 33.976C25.7291 33.6442 25.4668 33.3754 25.1432 33.3754H6.89551C6.57184 33.3754 6.30957 33.6442 6.30957 33.976C6.30957 34.3077 6.57184 34.5765 6.89551 34.5765Z" fill="#FBFBFB"/>
<path d="M6.89551 37.8148H25.1432C25.4668 37.8148 25.7291 37.546 25.7291 37.2142C25.7291 36.8825 25.4668 36.6136 25.1432 36.6136H6.89551C6.57184 36.6136 6.30957 36.8825 6.30957 37.2142C6.30957 37.546 6.57184 37.8148 6.89551 37.8148Z" fill="#FBFBFB"/>
<path d="M6.30957 21.0223C6.30957 21.3541 6.57184 21.6229 6.89551 21.6229H25.1432C25.4668 21.6229 25.7291 21.3541 25.7291 21.0223C25.7291 20.6906 25.4668 20.4218 25.1432 20.4218H6.89551C6.57184 20.4218 6.30957 20.6907 6.30957 21.0223Z" fill="#FBFBFB"/>
<path d="M6.89551 24.8615H25.1432C25.4668 24.8615 25.7291 24.5926 25.7291 24.2609C25.7291 23.9291 25.4668 23.6603 25.1432 23.6603H6.89551C6.57184 23.6603 6.30957 23.9291 6.30957 24.2609C6.30957 24.5926 6.57184 24.8615 6.89551 24.8615Z" fill="#FBFBFB"/>
<path d="M4.73192 28.1019C5.05677 28.1019 5.32013 27.832 5.32013 27.4991C5.32013 27.1662 5.05677 26.8962 4.73192 26.8962C4.40708 26.8962 4.1438 27.1661 4.1438 27.4991C4.1438 27.832 4.40716 28.1019 4.73192 28.1019Z" fill="#FBFBFB"/>
<path d="M4.73192 21.6253C5.05677 21.6253 5.32013 21.3555 5.32013 21.0225C5.32013 20.6895 5.05677 20.4197 4.73192 20.4197C4.40708 20.4197 4.1438 20.6895 4.1438 21.0225C4.1438 21.3555 4.40716 21.6253 4.73192 21.6253Z" fill="#FBFBFB"/>
<path d="M4.73192 24.8636C5.05677 24.8636 5.32013 24.5937 5.32013 24.2608C5.32013 23.9278 5.05677 23.658 4.73192 23.658C4.40708 23.658 4.1438 23.9278 4.1438 24.2608C4.1438 24.5937 4.40716 24.8636 4.73192 24.8636Z" fill="#FBFBFB"/>
<path d="M4.73192 31.3404C5.05677 31.3404 5.32013 31.0706 5.32013 30.7376C5.32013 30.4046 5.05677 30.1348 4.73192 30.1348C4.40708 30.1348 4.1438 30.4046 4.1438 30.7376C4.1438 31.0706 4.40716 31.3404 4.73192 31.3404Z" fill="#FBFBFB"/>
<path d="M4.73192 34.5788C5.05677 34.5788 5.32013 34.309 5.32013 33.976C5.32013 33.643 5.05677 33.3732 4.73192 33.3732C4.40708 33.3732 4.1438 33.643 4.1438 33.976C4.1438 34.3089 4.40716 34.5788 4.73192 34.5788Z" fill="#FBFBFB"/>
<path d="M4.73192 37.8171C5.05677 37.8171 5.32013 37.5472 5.32013 37.2143C5.32013 36.8814 5.05677 36.6115 4.73192 36.6115C4.40708 36.6115 4.1438 36.8813 4.1438 37.2143C4.1438 37.5472 4.40716 37.8171 4.73192 37.8171Z" fill="#FBFBFB"/>
<path d="M37.9398 9.45891C37.7034 9.15221 37.48 8.86241 37.3719 8.59543C37.2554 8.30722 37.2094 7.92645 37.1608 7.52318C37.0756 6.81673 36.979 6.01603 36.4339 5.45732C35.8887 4.89862 35.1075 4.79964 34.4183 4.71228C34.0247 4.66247 33.6531 4.61538 33.3719 4.49591C33.1114 4.38516 32.8287 4.15629 32.5294 3.9139C32.1176 3.58037 31.6647 3.21418 31.1293 3.04801V2.86632C31.1293 1.28589 29.8747 0 28.3326 0H3.92294C2.38083 0 1.12622 1.28589 1.12622 2.8664V5.18458C1.12622 5.51634 1.38849 5.78516 1.71216 5.78516C2.03583 5.78516 2.2981 5.51634 2.2981 5.18458V2.8664C2.2981 1.94814 3.027 1.20117 3.92294 1.20117H28.3326C29.2286 1.20117 29.9575 1.94814 29.9575 2.8664V3.04817C29.4222 3.21442 28.9694 3.58045 28.5576 3.91398C28.2583 4.15629 27.9757 4.38524 27.7152 4.49599C27.434 4.61538 27.0624 4.66247 26.6689 4.71236C25.9797 4.79964 25.1985 4.89862 24.6532 5.45732C24.108 6.01611 24.0115 6.81681 23.9262 7.52326C23.8776 7.92645 23.8317 8.3073 23.7151 8.59551C23.6071 8.86249 23.3837 9.15229 23.1472 9.45899C22.7094 10.0268 22.2133 10.6704 22.2133 11.4943C22.2133 12.3183 22.7095 12.9618 23.1472 13.5297C23.3836 13.8364 23.6071 14.1262 23.7151 14.3932C23.8317 14.6814 23.8776 15.0621 23.9262 15.4655C24.0115 16.1719 24.108 16.9726 24.6532 17.5313C25.1983 18.09 25.9796 18.1889 26.6688 18.2763C26.8743 18.3023 27.0734 18.3279 27.2572 18.3631V27.4413C27.2572 27.7971 27.451 28.1149 27.7629 28.2705C28.0748 28.4265 28.4383 28.3869 28.7118 28.1674L29.9574 27.1678V38.1337C29.9574 39.0519 29.2285 39.7989 28.3326 39.7989H3.92294C3.027 39.7989 2.2981 39.0519 2.2981 38.1337V7.82932C2.2981 7.49756 2.03583 7.22873 1.71216 7.22873C1.38849 7.22873 1.12622 7.49756 1.12622 7.82932V38.1336C1.12622 39.7141 2.38083 41 3.92294 41H28.3326C29.8747 41 31.1293 39.7141 31.1293 38.1336V27.1677L32.3749 28.1672C32.5375 28.2978 32.732 28.3647 32.9287 28.3647C33.0628 28.3647 33.1978 28.3336 33.3243 28.2704C33.6364 28.1147 33.8303 27.797 33.8303 27.4413V20.739C33.8303 20.4072 33.568 20.1384 33.2443 20.1384C32.9207 20.1384 32.6584 20.4072 32.6584 20.739V26.8693L31.1008 25.6194C30.9434 25.4917 30.7454 25.4213 30.5433 25.4213C30.3412 25.4213 30.1432 25.4917 29.9883 25.6173L28.429 26.8687V18.971C28.4715 19.0051 28.5143 19.0396 28.5575 19.0746C29.1116 19.5234 29.7396 20.0318 30.5435 20.0318C31.3473 20.0318 31.9753 19.5233 32.5293 19.0747C32.8286 18.8324 33.1114 18.6033 33.3718 18.4926C33.653 18.3732 34.0247 18.3261 34.4182 18.2762C35.1074 18.1889 35.8886 18.09 36.4339 17.5313C36.979 16.9725 37.0755 16.1718 37.1607 15.4654C37.2094 15.0621 37.2554 14.6813 37.3719 14.3931C37.48 14.1261 37.7033 13.8363 37.9398 13.5296C38.3776 12.9618 38.8737 12.3182 38.8737 11.4943C38.8737 10.6703 38.3775 10.0267 37.9398 9.45891ZM37.0204 12.7849C36.7447 13.1424 36.4597 13.5121 36.2895 13.933C36.1119 14.3718 36.0539 14.8528 35.9978 15.318C35.9297 15.8822 35.8655 16.4151 35.6054 16.6818C35.3451 16.9485 34.8251 17.0143 34.2746 17.084C33.8207 17.1415 33.3515 17.2009 32.9232 17.383C32.5125 17.5574 32.1519 17.8495 31.8031 18.132C31.3594 18.4912 30.9404 18.8305 30.5436 18.8305C30.1468 18.8305 29.7279 18.4912 29.2842 18.132C28.9354 17.8496 28.5747 17.5574 28.1641 17.383C28.1358 17.3709 28.0377 17.3327 28.0165 17.3259C27.6293 17.1879 27.215 17.135 26.8126 17.084C26.2621 17.0143 25.7421 16.9484 25.4818 16.6817C25.2218 16.4151 25.1575 15.8822 25.0894 15.3181C25.0333 14.8528 24.9754 14.3719 24.7978 13.933C24.6275 13.5121 24.3425 13.1424 24.0669 12.7849C23.7165 12.3302 23.3854 11.9008 23.3854 11.4943C23.3854 11.0877 23.7165 10.6583 24.0669 10.2036C24.3425 9.84609 24.6275 9.47645 24.7978 9.05556C24.9754 8.61673 25.0334 8.1357 25.0894 7.67052C25.1575 7.10629 25.2218 6.57337 25.4819 6.30671C25.7422 6.04005 26.2622 5.97423 26.8127 5.90448C27.2666 5.84698 27.7358 5.78757 28.1641 5.60555C28.5747 5.43106 28.9354 5.13901 29.2842 4.8565C29.7269 4.49799 30.1452 4.15942 30.5413 4.15814C30.542 4.15814 30.5428 4.15822 30.5435 4.15822C30.5443 4.15822 30.545 4.15814 30.5458 4.15814C30.942 4.15934 31.3603 4.49799 31.8031 4.8565C32.1519 5.13893 32.5125 5.43106 32.9232 5.60555C33.3514 5.78757 33.8208 5.84706 34.2747 5.90448C34.8252 5.97423 35.3452 6.04013 35.6054 6.30679C35.8655 6.57345 35.9298 7.10629 35.9979 7.67052C36.054 8.1357 36.1119 8.61665 36.2895 9.05556C36.4598 9.47645 36.7447 9.84609 37.0204 10.2036C37.3708 10.6583 37.7018 11.0877 37.7018 11.4943C37.7018 11.9008 37.3708 12.3303 37.0204 12.7849Z" fill="#FBFBFB"/>
<path d="M34.3053 9.58566L32.3114 9.00742L31.1585 7.24249C31.0208 7.03173 30.7909 6.90601 30.5435 6.90601C30.2961 6.90601 30.0662 7.03181 29.9285 7.24249L28.7756 9.00742L26.7816 9.58574C26.5434 9.65485 26.3556 9.84023 26.2792 10.0814C26.2028 10.3226 26.2486 10.5857 26.4016 10.7847L27.6831 12.4538L27.6035 14.5756C27.5939 14.8292 27.7077 15.0696 27.9079 15.2188C28.0364 15.3144 28.1887 15.3639 28.3427 15.3639C28.4288 15.3639 28.5153 15.3485 28.5984 15.3171L30.5434 14.5837L32.4881 15.317C32.7204 15.4048 32.9784 15.3679 33.1787 15.2189C33.3789 15.0699 33.4928 14.8296 33.4833 14.576L33.4037 12.4537L34.6853 10.7847C34.8383 10.5854 34.884 10.3225 34.8075 10.0813C34.7313 9.84007 34.5435 9.65477 34.3053 9.58566ZM32.3845 11.8393C32.2762 11.9806 32.2202 12.1572 32.2268 12.3373L32.2876 13.9616L30.7991 13.4003C30.6341 13.3381 30.4525 13.3382 30.2879 13.4003L28.7992 13.9616L28.8601 12.3367C28.8666 12.1573 28.8106 11.9806 28.702 11.8389L27.7213 10.5615L29.2477 10.1189C29.4166 10.0698 29.5634 9.96043 29.6609 9.811L30.5434 8.46008L31.4257 9.81084C31.5234 9.96035 31.6702 10.0697 31.8393 10.119L33.3655 10.5615L32.3845 11.8393Z" fill="#FBFBFB"/>
</g>
<defs>
<clipPath id="clip0">
<rect width="40" height="41" fill="white"/>
</clipPath>
</defs>
</svg>
