<svg width="14" height="12" viewBox="0 0 14 12" fill="none" xmlns="http://www.w3.org/2000/svg">
<path d="M2.16262 2.96709C3.08449 2.96709 3.83182 2.30288 3.83182 1.48354C3.83182 0.664205 3.08449 0 2.16262 0C1.24074 0 0.493408 0.664205 0.493408 1.48354C0.493408 2.30288 1.24074 2.96709 2.16262 2.96709Z" fill="white"/>
<path d="M3.5535 3.95801H0.771487C0.61792 3.95801 0.493286 4.06878 0.493286 4.20527V11.623C0.493286 11.7595 0.61792 11.8703 0.771487 11.8703H3.5535C3.70707 11.8703 3.8317 11.7595 3.8317 11.623V4.20527C3.8317 4.06878 3.70707 3.95801 3.5535 3.95801Z" fill="white"/>
<path d="M11.8437 3.54689C10.6547 3.1849 9.16743 3.50288 8.27552 4.07306C8.24492 3.96674 8.13587 3.88761 8.00623 3.88761H5.22424C5.07068 3.88761 4.94604 3.99838 4.94604 4.13487V11.5526C4.94604 11.6891 5.07068 11.7999 5.22424 11.7999H8.00623C8.15979 11.7999 8.28443 11.6891 8.28443 11.5526V6.22173C8.734 5.87755 9.3132 5.76777 9.78726 5.94678C10.2468 6.11937 10.51 6.54069 10.51 7.10197V11.5526C10.51 11.6891 10.6346 11.7999 10.7882 11.7999H13.5702C13.7238 11.7999 13.8484 11.6891 13.8484 11.5526V6.60399C13.8167 4.57202 12.7412 3.81986 11.8437 3.54689Z" fill="white"/>
</svg>
