<svg width="60" height="60" viewBox="0 0 60 60" fill="none" xmlns="http://www.w3.org/2000/svg">
<path d="M20.1242 18.9601C19.7882 18.9601 19.4582 18.7981 19.2542 18.4981L16.0322 13.7761C15.7022 13.2961 15.8282 12.6361 16.3082 12.3121C16.7882 11.9821 17.4482 12.1081 17.7722 12.5881L20.9942 17.3101C21.3242 17.7901 21.1982 18.4501 20.7182 18.7741C20.5322 18.9061 20.3282 18.9601 20.1242 18.9601Z" fill="#FBFBFB"/>
<path d="M26.9939 17.8858C26.4839 17.8858 26.0399 17.5198 25.9559 17.0038L24.4499 7.76981C24.3539 7.19381 24.7499 6.65382 25.3199 6.55782C25.8959 6.46182 26.4359 6.85782 26.5319 7.42781L28.0379 16.6618C28.1339 17.2378 27.7379 17.7778 27.1679 17.8738C27.1079 17.8858 27.0479 17.8858 26.9939 17.8858Z" fill="#FBFBFB"/>
<path d="M33.8637 17.886C33.8157 17.886 33.7677 17.886 33.7197 17.874C33.1437 17.796 32.7417 17.262 32.8197 16.686L34.1097 7.45203C34.1877 6.87603 34.7157 6.47404 35.2977 6.55204C35.8737 6.63004 36.2757 7.16403 36.1977 7.74003L34.9077 16.98C34.8357 17.508 34.3857 17.886 33.8637 17.886Z" fill="#FBFBFB"/>
<path d="M40.3079 18.9601C40.1159 18.9601 39.9179 18.9061 39.7379 18.7921C39.2459 18.4801 39.1019 17.8261 39.4199 17.3341L43.0679 11.6461C43.3799 11.1601 44.0339 11.0161 44.5259 11.3281C45.0179 11.6401 45.1559 12.2941 44.8439 12.7861L41.1959 18.4801C40.9919 18.7921 40.6559 18.9601 40.3079 18.9601Z" fill="#FBFBFB"/>
<path d="M8.094 42.372C7.992 42.372 7.89 42.36 7.794 42.33L1.35 40.392C1.074 40.308 0.839997 40.116 0.713997 39.858C0.581997 39.6 0.563997 39.3 0.659997 39.03L7.104 20.994C7.206 20.718 7.41 20.496 7.68601 20.382C7.95601 20.268 8.26201 20.268 8.53201 20.388L14.76 23.178C15.174 23.364 15.426 23.796 15.378 24.246C14.508 32.982 9.22201 41.52 8.99401 41.88C8.79601 42.186 8.45401 42.372 8.094 42.372ZM3.018 38.694L7.608 40.068C8.81401 37.968 12.318 31.404 13.188 24.78L8.70601 22.77L3.018 38.694Z" fill="#FBFBFB"/>
<path d="M51.906 42.3721C51.582 42.3721 51.264 42.2221 51.06 41.9521C45.186 34.1161 43.422 25.3561 43.35 24.9841C43.266 24.5581 43.452 24.1261 43.818 23.8921L49.188 20.4541C49.44 20.2921 49.746 20.2501 50.034 20.3221C50.322 20.4001 50.562 20.5981 50.7 20.8621L59.292 37.8241C59.424 38.0761 59.442 38.3761 59.346 38.6461C59.25 38.9161 59.052 39.1381 58.794 39.2581L52.35 42.2641C52.206 42.3361 52.056 42.3721 51.906 42.3721ZM45.582 25.2661C46.098 27.3781 47.946 33.9601 52.242 39.9901L56.91 37.8121L49.344 22.8601L45.582 25.2661Z" fill="#FBFBFB"/>
<path d="M46.1039 44.0881C45.8459 44.0881 45.5879 43.9921 45.3839 43.8061C40.5119 39.2641 32.4479 31.8361 31.5659 31.2541C31.0619 30.9241 30.1019 31.0561 29.4659 31.2361C28.9259 32.2981 27.4259 34.8361 25.1219 35.4661C23.5199 35.9041 22.1399 35.7061 21.2459 34.9141C20.5439 34.2961 20.2259 33.3661 20.3699 32.3701C20.5679 30.9961 21.4139 29.9821 21.9119 29.4901C22.0199 28.6081 22.3379 26.8021 23.2019 25.8121C24.3599 24.4861 28.0019 22.3861 28.4099 22.1521C28.4819 22.1101 28.5539 22.0801 28.6379 22.0561C28.7999 22.0081 32.6819 20.8921 35.5679 22.0921C37.5059 22.9021 38.7659 23.7181 39.3419 24.1321L44.3099 23.7361C44.8739 23.6881 45.3959 24.1201 45.4439 24.7021C45.4919 25.2841 45.0599 25.7881 44.4779 25.8361L39.1079 26.2681C38.8379 26.2921 38.5619 26.2021 38.3459 26.0281C38.3339 26.0221 37.1219 25.0321 34.7519 24.0421C32.7839 23.2261 29.9339 23.8981 29.3399 24.0481C27.8879 24.8821 25.4699 26.4181 24.7859 27.1981C24.3419 27.7081 24.0419 29.1901 23.9699 30.0841C23.9459 30.3781 23.8019 30.6481 23.5679 30.8281C23.5619 30.8341 22.6079 31.6141 22.4579 32.6641C22.4159 32.9581 22.4759 33.1861 22.6439 33.3301C22.9079 33.5641 23.5499 33.7081 24.5699 33.4321C26.0999 33.0121 27.4079 30.7261 27.7499 29.9521C27.8639 29.7001 28.0679 29.4961 28.3259 29.3941C28.5959 29.2861 31.0319 28.3741 32.7299 29.4961C33.9239 30.2881 43.4159 39.0961 46.1879 41.6761L50.1179 38.8201C50.5859 38.4781 51.2459 38.5801 51.5939 39.0541C51.9359 39.5281 51.8339 40.1821 51.3599 40.5301L46.7279 43.9021C46.5419 44.0221 46.3199 44.0881 46.1039 44.0881Z" fill="#FBFBFB"/>
<path d="M24.954 26.6941C24.924 26.6941 24.894 26.6941 24.87 26.6881L14.238 25.8301C13.656 25.7821 13.224 25.2721 13.272 24.6961C13.32 24.1141 13.818 23.6761 14.406 23.7301L25.038 24.5881C25.62 24.6361 26.052 25.1461 26.004 25.7221C25.962 26.2741 25.5 26.6941 24.954 26.6941Z" fill="#FBFBFB"/>
<path d="M44.9221 47.8561C43.8061 47.8561 42.7141 47.3221 42.0481 46.8421C42.0241 46.8241 42.0061 46.8061 41.9821 46.7881L32.5321 38.6761C32.0881 38.2981 32.0401 37.6321 32.4181 37.1881C32.7961 36.7441 33.4621 36.6961 33.9061 37.0741L43.3141 45.1501C43.5121 45.2821 44.8921 46.1581 45.5761 45.4801C46.2781 44.7841 45.4381 43.8601 45.3421 43.7581C44.9401 43.3381 44.9581 42.6661 45.3781 42.2701C45.7981 41.8681 46.4701 41.8861 46.8661 42.3061C47.8201 43.3081 48.6601 45.3841 47.0581 46.9741C46.4221 47.6221 45.6661 47.8561 44.9221 47.8561Z" fill="#FBFBFB"/>
<path d="M41.1541 51.0599C40.3741 51.0599 39.4441 50.7599 38.3581 49.8959C36.8761 48.7079 28.8181 41.7119 28.4761 41.4119C28.0381 41.0279 27.9901 40.3619 28.3741 39.9239C28.7581 39.4859 29.4241 39.4379 29.8621 39.8219C29.9461 39.8939 38.2261 47.0879 39.6781 48.2519C41.1061 49.3919 41.6161 48.8819 41.9221 48.5759C42.7201 47.7719 41.9461 46.7699 41.8501 46.6619C41.4841 46.2119 41.5501 45.5459 42.0001 45.1799C42.4501 44.8139 43.1161 44.8799 43.4821 45.3299C44.2021 46.2179 45.1201 48.3479 43.4101 50.0639C42.9601 50.5199 42.1981 51.0599 41.1541 51.0599Z" fill="#FBFBFB"/>
<path d="M36.3959 52.92C35.2679 52.92 34.2359 52.338 33.6659 51.84L29.1659 48.102C28.7159 47.73 28.6559 47.064 29.0279 46.62C29.3999 46.17 30.0659 46.11 30.5099 46.482L35.0279 50.238C35.2559 50.436 36.3719 51.294 37.2119 50.406C37.8239 49.758 36.9659 48.738 36.9299 48.69C36.5519 48.246 36.5999 47.586 37.0439 47.208C37.4819 46.83 38.1419 46.872 38.5259 47.31C39.2759 48.168 40.2899 50.226 38.7539 51.858C38.0099 52.638 37.1819 52.92 36.3959 52.92Z" fill="#FBFBFB"/>
<path d="M31.1881 53.454C29.8561 53.454 28.1581 52.968 26.1061 51.426C25.6381 51.078 25.5481 50.418 25.8961 49.95C26.2441 49.482 26.9041 49.392 27.3721 49.74C31.2601 52.656 32.9881 50.736 33.0541 50.652C33.4261 50.214 34.0921 50.154 34.5361 50.52C34.9801 50.886 35.0521 51.534 34.6921 51.978C34.6741 52.008 33.4741 53.454 31.1881 53.454Z" fill="#FBFBFB"/>
<path d="M21.816 51.084C21.132 51.084 20.472 50.874 19.902 50.484C18.39 49.428 18.018 47.34 19.074 45.828L20.598 43.638C21.222 42.744 22.248 42.204 23.346 42.204C24.03 42.204 24.696 42.414 25.26 42.804C25.992 43.314 26.484 44.082 26.64 44.958C26.796 45.84 26.604 46.728 26.088 47.46L24.564 49.65C23.94 50.55 22.914 51.084 21.816 51.084ZM23.346 44.316C22.944 44.316 22.56 44.514 22.332 44.844L20.808 47.034C20.418 47.592 20.556 48.366 21.114 48.756C21.654 49.134 22.458 48.984 22.836 48.45L24.36 46.26C24.546 45.99 24.618 45.66 24.564 45.336C24.504 45.012 24.324 44.73 24.054 44.538C23.844 44.394 23.598 44.316 23.346 44.316Z" fill="#FBFBFB"/>
<path d="M17.934 48.8581C17.268 48.8581 16.626 48.6541 16.08 48.2761C14.61 47.2501 14.25 45.2221 15.27 43.7521L16.416 42.1021C17.022 41.2321 18.0181 40.7101 19.0861 40.7101C19.7521 40.7101 20.3941 40.9141 20.9401 41.2921C21.6541 41.7901 22.1281 42.5341 22.2841 43.3861C22.4341 44.2381 22.2481 45.1021 21.7501 45.8161L20.6041 47.4661C19.9921 48.3421 18.9961 48.8581 17.934 48.8581ZM19.0861 42.8221C18.7141 42.8221 18.3601 43.0021 18.1501 43.3081L17.004 44.9581C16.644 45.4741 16.77 46.1881 17.286 46.5481C17.7841 46.8961 18.5281 46.7641 18.8761 46.2661L20.0221 44.6161C20.1961 44.3641 20.2621 44.0641 20.2081 43.7641C20.1541 43.4641 19.9861 43.2001 19.7341 43.0261C19.5421 42.8941 19.3201 42.8221 19.0861 42.8221Z" fill="#FBFBFB"/>
<path d="M14.502 46.386C13.902 46.386 13.32 46.206 12.822 45.858C12.18 45.408 11.748 44.736 11.61 43.962C11.472 43.188 11.646 42.408 12.09 41.766L12.84 40.686C13.386 39.9 14.292 39.426 15.252 39.426C15.852 39.426 16.434 39.606 16.932 39.954C18.258 40.878 18.588 42.714 17.658 44.04L16.908 45.12C16.362 45.912 15.462 46.386 14.502 46.386ZM15.258 41.538C14.988 41.538 14.73 41.67 14.58 41.892L13.83 42.972C13.704 43.152 13.656 43.374 13.692 43.59C13.728 43.806 13.854 43.998 14.034 44.124C14.4 44.376 14.934 44.28 15.186 43.92L15.936 42.84C16.2 42.468 16.104 41.946 15.732 41.688C15.588 41.592 15.426 41.538 15.258 41.538Z" fill="#FBFBFB"/>
<path d="M25.3499 52.9261C24.7499 52.9261 24.1739 52.7461 23.6819 52.4041C22.3619 51.4861 22.0379 49.6621 22.9559 48.3421L24.2399 46.5001C24.7859 45.7201 25.6799 45.2521 26.6339 45.2521C27.2339 45.2521 27.8099 45.4321 28.3019 45.7741C28.9439 46.2181 29.3699 46.8901 29.5079 47.6581C29.6459 48.4261 29.4719 49.2001 29.0279 49.8421L27.7499 51.6781C27.1979 52.4581 26.3039 52.9261 25.3499 52.9261ZM26.6339 47.3641C26.3699 47.3641 26.1179 47.4961 25.9679 47.7121L24.6899 49.5481C24.4319 49.9141 24.5219 50.4181 24.8879 50.6761C25.2419 50.9221 25.7699 50.8261 26.0159 50.4721L27.2939 48.6361C27.4199 48.4561 27.4619 48.2461 27.4259 48.0301C27.3899 47.8201 27.2699 47.6341 27.0899 47.5081C26.9579 47.4121 26.7959 47.3641 26.6339 47.3641Z" fill="#FBFBFB"/>
<path d="M12.444 43.458C12.264 43.458 12.084 43.41 11.916 43.314L8.18997 41.16C7.68597 40.866 7.51197 40.224 7.80597 39.72C8.09997 39.216 8.74197 39.042 9.24597 39.336L12.972 41.49C13.476 41.784 13.65 42.426 13.356 42.93C13.164 43.266 12.81 43.458 12.444 43.458Z" fill="#FBFBFB"/>
</svg>
