<svg width="13" height="11" viewBox="0 0 13 11" fill="none" xmlns="http://www.w3.org/2000/svg">
<path d="M12.8368 1.26492C12.7556 1.17314 12.6247 1.15006 12.5173 1.20667C12.4505 1.24184 12.3249 1.28801 12.1759 1.33363C12.3639 1.07641 12.5152 0.788414 12.582 0.529548C12.6108 0.417978 12.5686 0.300361 12.4767 0.233859C12.3848 0.167906 12.2624 0.167906 12.1705 0.233859C12.0257 0.337735 11.3268 0.649912 10.8849 0.75104C9.88619 -0.148669 8.72399 -0.242102 7.51584 0.483381C6.53372 1.07311 6.31998 2.27236 6.36166 3.00334C4.11368 2.78075 2.71637 1.55951 1.92982 0.548784C1.87478 0.477885 1.78608 0.440512 1.70272 0.446008C1.61509 0.452603 1.53601 0.502617 1.49112 0.580112C1.11922 1.2259 1.01609 1.93984 1.19403 2.64499C1.29128 3.02972 1.4612 3.36883 1.65837 3.64363C1.56379 3.59581 1.47242 3.53591 1.38639 3.46446C1.30731 3.39741 1.1967 3.38476 1.10319 3.42928C1.01021 3.4749 0.950902 3.57163 0.950902 3.67771C0.950902 4.88849 1.68723 5.69642 2.37493 6.11852C2.26378 6.10478 2.14783 6.0795 2.03081 6.04267C1.93035 6.01134 1.82135 6.04267 1.75188 6.12401C1.68242 6.20481 1.66585 6.32022 1.70913 6.4186C2.09547 7.29743 2.82752 7.902 3.73323 8.12129C2.9424 8.5989 1.88387 8.83303 0.914567 8.71817C0.788996 8.70003 0.669303 8.78192 0.629762 8.90613C0.59022 9.03034 0.642052 9.16665 0.752661 9.2304C2.22317 10.0795 3.55262 10.3829 4.70146 10.3829C6.37342 10.3829 7.66386 9.74099 8.44934 9.20402C10.5669 7.75855 11.8868 5.1633 11.703 2.8412C12.0423 2.58344 12.5499 2.10747 12.8646 1.59579C12.9298 1.49246 12.9181 1.35616 12.8368 1.26492Z" fill="white"/>
</svg>
