<svg width="50" height="50" viewBox="0 0 50 50" fill="none" xmlns="http://www.w3.org/2000/svg">
<path d="M27.5686 0.640484C26.8091 0.975986 24.7376 1.66648 23.3566 2.05098C19.4896 3.10648 15.6821 3.62948 11.7656 3.62948H10.0096V11.916V20.202H7.92808C6.58658 20.202 5.69858 20.2415 5.43258 20.3205C4.89008 20.4785 3.97258 21.3955 3.81508 21.9385C3.64758 22.5205 3.64758 36.035 3.81508 36.617C3.97308 37.1595 4.89008 38.077 5.43258 38.235C5.71858 38.314 6.92208 38.3535 9.49658 38.3535H13.1466L13.7976 39.261C15.3366 41.441 17.2011 43.2165 19.4796 44.6865C19.9431 44.9825 22.0836 46.196 24.2441 47.3695L28.1601 49.5005L32.0861 47.3695C34.2366 46.1955 36.3771 44.9825 36.8411 44.6865C42.1386 41.2735 45.6206 35.532 46.2126 29.2285C46.2716 28.548 46.3111 23.5665 46.3111 15.9015V3.65948L43.7266 3.60049C42.2961 3.57098 40.5306 3.47198 39.8006 3.38348C36.2296 2.96898 32.5306 2.08149 29.4331 0.907486C28.1801 0.433487 28.0716 0.413986 27.5686 0.640484ZM30.2321 2.82048C34.2371 4.20148 38.5381 4.98098 43.0856 5.16848L44.7331 5.23749V16.9565C44.7331 29.682 44.7331 29.8 44.1806 32.0395C43.0956 36.449 40.3431 40.4245 36.5946 42.9795C36.0521 43.3545 33.9311 44.5675 31.8891 45.6925L28.1601 47.7245L24.4511 45.702C20.6336 43.6205 19.7061 43.0585 18.5816 42.141C17.2796 41.0855 15.8296 39.527 14.9516 38.2245L14.6361 37.761L14.9816 37.3565C15.1691 37.1295 15.3566 36.824 15.3861 36.666C15.4746 36.2615 15.6031 36.232 15.7706 36.5575C16.0766 37.1595 17.1811 38.5405 18.0886 39.4775C19.0651 40.474 20.1896 41.411 21.1861 42.0425C21.9556 42.536 28.0321 45.85 28.1606 45.85C28.2891 45.85 34.3656 42.5355 35.1351 42.0425C36.6146 41.1055 38.4296 39.4285 39.5346 37.988C41.4681 35.4625 42.7206 32.296 43.0561 29.08C43.1056 28.567 43.1546 25.292 43.1546 21.8V15.467H42.3656H41.5766V21.968C41.5766 29.1395 41.5371 29.8105 40.9846 31.7635C40.4616 33.628 39.5641 35.4235 38.3606 37.0315C37.5811 38.067 35.8256 39.705 34.7106 40.4445C33.7241 41.1055 28.3481 44.0745 28.1606 44.0745C27.9731 44.0745 22.6071 41.1055 21.6106 40.454C20.5746 39.7635 18.9766 38.2935 18.2071 37.327C17.3686 36.2715 17.3491 36.1135 18.1576 36.942C18.7201 37.534 19.1046 37.83 19.5286 38.027L20.1206 38.303L26.4831 38.3325C30.6166 38.352 33.0036 38.3225 33.3191 38.2535C34.9076 37.918 36.3671 36.478 36.7321 34.8895C36.8701 34.3075 36.8701 25.035 36.7321 24.453C36.3776 22.895 34.9376 21.455 33.3791 21.1C33.1326 21.041 31.5046 20.9915 29.6306 20.9915C26.5136 20.9915 26.2966 20.9815 26.0796 20.804L25.8431 20.6165L25.7936 17.4695L25.7441 14.3325L25.4681 13.7305C25.3006 13.3755 24.9751 12.9215 24.6791 12.6255C23.2291 11.195 21.2561 11.195 19.8061 12.6255C19.5101 12.9215 19.1846 13.375 19.0171 13.7305L18.7411 14.3325L18.6916 17.193C18.6421 20.0145 18.6421 20.0635 18.3856 20.5965C18.2476 20.9025 17.9811 21.307 17.8136 21.514C17.4681 21.8985 16.4916 22.4215 15.9296 22.52C15.5841 22.579 15.5746 22.579 15.4561 22.1055C15.3871 21.849 15.1996 21.4645 15.0321 21.267L14.7461 20.902V14.5885V8.28499L15.4171 8.21598C19.5601 7.84098 23.0526 7.15049 26.6626 5.97649L28.1621 5.49298L29.6716 5.97649C33.2326 7.13049 36.9616 7.88048 40.8186 8.21598L41.5781 8.28499V8.71999V9.15399H42.3671H43.1561V7.96999C43.1561 6.80599 43.1561 6.78598 42.9391 6.78598C42.2981 6.78598 39.7626 6.55899 38.4411 6.39149C35.5506 6.00698 32.8281 5.38548 29.9181 4.41848L28.1621 3.83648L26.3751 4.42848C22.4981 5.71098 18.5326 6.46049 14.1826 6.74649L13.1666 6.80548V13.504V20.202H12.3776H11.5886V12.725V5.24749L13.8376 5.12899C16.8366 4.97099 18.8881 4.69498 21.5516 4.10299C23.2876 3.71849 25.5761 3.04749 26.8786 2.55449C27.5101 2.31799 28.0326 2.17949 28.2101 2.19949C28.3776 2.21898 29.2851 2.49498 30.2321 2.82048ZM23.2086 13.307C23.4651 13.435 23.7411 13.682 23.8991 13.9185L24.1656 14.313L24.2151 17.4795C24.2741 21.0405 24.2741 21.031 25.0731 21.7905C25.8521 22.5305 25.7341 22.5105 29.7391 22.57C33.8331 22.629 33.8726 22.629 34.5631 23.4285C35.2636 24.2175 35.2636 24.188 35.2636 29.6725C35.2636 35.2655 35.2736 35.1965 34.4746 35.986C33.6656 36.805 33.9321 36.775 26.7606 36.775C21.6806 36.775 20.3981 36.7455 20.1416 36.637C19.9641 36.568 19.5496 36.193 19.2046 35.8085C18.3561 34.842 17.6556 34.5065 16.4226 34.4275L15.5346 34.378V29.278V24.168L16.2351 24.01C18.1291 23.586 19.6781 22.057 20.1216 20.1925C20.2301 19.719 20.2696 18.9495 20.2696 17.1445C20.2696 15.7735 20.3191 14.57 20.3781 14.353C20.4966 13.899 21.0491 13.337 21.4831 13.2085C22.0446 13.0505 22.7446 13.09 23.2086 13.307ZM13.7581 21.978C13.9556 22.1755 13.9556 22.3035 13.9556 29.278C13.9556 36.2525 13.9556 36.3805 13.7581 36.578C13.5706 36.7655 13.4326 36.7755 9.61508 36.7755C5.79758 36.7755 5.65908 36.7655 5.47208 36.578C5.27458 36.3805 5.27458 36.2525 5.27458 29.278C5.27458 22.304 5.27458 22.1755 5.47208 21.978C5.65958 21.7905 5.79758 21.7805 9.61508 21.7805C13.4326 21.7805 13.5706 21.7905 13.7581 21.978Z" fill="#FBFBFB"/>
<path d="M41.5762 13.0994V13.8884H42.3652H43.1542V13.0994V12.3104H42.3652H41.5762V13.0994Z" fill="#FBFBFB"/>
<path d="M6.85327 34.407V35.196H9.61527H12.3773V34.407V33.618H9.61527H6.85327V34.407Z" fill="#FBFBFB"/>
</svg>
